  <svg
    width="1em"
    height="1em"
    viewBox="0 0 20 20"
    fill="none"
    xmlns="http://www.w3.org/2000/svg"
  >
    <path
      fillRule="evenodd"
      clipRule="evenodd"
      d="M10 2.5C6.96243 2.5 4.5 4.96243 4.5 8C4.5 11.6434 8.25413 16.5808 9.66667 18.3181C9.85556 18.5507 10.1444 18.5507 10.3333 18.3181C11.7459 16.5808 15.5 11.6434 15.5 8C15.5 4.96243 13.0376 2.5 10 2.5ZM3 8C3 4.41015 6.41015 1 10 1C13.5899 1 17 4.41015 17 8C17 12.2091 12.6235 17.5837 10.8686 19.7063C10.3863 20.2986 9.61366 20.2986 9.13142 19.7063C7.37653 17.5837 3 12.2091 3 8ZM10 5.5C8.61929 5.5 7.5 6.61929 7.5 8C7.5 9.38071 8.61929 10.5 10 10.5C11.3807 10.5 12.5 9.38071 12.5 8C12.5 6.61929 11.3807 5.5 10 5.5ZM6 8C6 5.79086 7.79086 4 10 4C12.2091 4 14 5.79086 14 8C14 10.2091 12.2091 12 10 12C7.79086 12 6 10.2091 6 8Z"
      fill="currentColor"
    />
  </svg>