<svg
  width="24"
  height="24"
  viewBox="0 0 24 24"
  fill="none"
  xmlns="http://www.w3.org/2000/svg"
  stroke="currentColor"
  stroke-width="2"
  stroke-linecap="round"
  stroke-linejoin="round"
>
  <!-- Ticket shape outline -->
  <path
    d="M5 5H19C20.1 5 21 5.9 21 7V9C20 9 19 10 19 11.5C19 13 20 14 21 14V17C21 18.1 20.1 19 19 19H5C3.9 19 3 18.1 3 17V14C4 14 5 13 5 11.5C5 10 4 9 3 9V7C3 5.9 3.9 5 5 5Z"
  />
  
  <!-- Percentage circles -->
  <circle cx="8" cy="12" r="1.5" />
  <circle cx="16" cy="12" r="1.5" />
  
  <!-- Diagonal discount line -->
  <path d="M10 16L14 8" />
</svg>
